<svg xmlns="http://www.w3.org/2000/svg" viewBox="0 0 800 560" role="img" aria-labelledby="title">
  <title id="title">나무판 숫자 퍼즐 2 화면</title>
  <defs>
    <linearGradient id="wood" x1="0" y1="0" x2="0" y2="1"><stop stop-color="#f7d89a"/><stop offset="1" stop-color="#c98a43"/></linearGradient>
    <filter id="shadow" x="-20%" y="-20%" width="140%" height="150%"><feDropShadow dx="0" dy="10" stdDeviation="9" flood-color="#78350f" flood-opacity=".28"/></filter>
  </defs>
  <rect width="800" height="560" rx="44" fill="#fff7ed"/>
  <rect x="36" y="48" width="728" height="390" rx="38" fill="url(#wood)" stroke="#9a5c2b" stroke-width="8" filter="url(#shadow)"/>
  <path d="M62 108c160-28 298 18 444-8 104-18 169-3 230 14M54 264c110 18 196-8 292 4 138 18 240-20 400 0M66 398c170-18 322 20 664-10" fill="none" stroke="#8a4f29" stroke-opacity=".18" stroke-width="7"/>
  <g font-family="Arial Rounded MT Bold, Arial, sans-serif" font-size="94" font-weight="900" text-anchor="middle" dominant-baseline="central" fill="#713f12" opacity=".46">
    <text x="112" y="154">1</text><text x="256" y="154">2</text><text x="400" y="154">3</text><text x="544" y="154">4</text><text x="688" y="154">5</text>
    <text x="112" y="342">6</text><text x="256" y="342">7</text><text x="400" y="342">8</text><text x="544" y="342">9</text><text x="688" y="342" font-size="74">10</text>
  </g>
  <g transform="translate(236 464)" font-family="Arial Rounded MT Bold, Arial, sans-serif" font-size="54" font-weight="900" text-anchor="middle">
    <rect width="92" height="72" rx="18" fill="#ef4444" stroke="#9f1239" stroke-width="5"/><text x="46" y="52" fill="#fff">2</text>
    <rect x="112" width="92" height="72" rx="18" fill="#16a34a" stroke="#166534" stroke-width="5"/><text x="158" y="52" fill="#fff">5</text>
    <rect x="224" width="92" height="72" rx="18" fill="#2563eb" stroke="#1e3a8a" stroke-width="5"/><text x="270" y="52" fill="#fff">8</text>
  </g>
</svg>
