<svg xmlns="http://www.w3.org/2000/svg" viewBox="0 0 480 360" role="img" aria-label="rainy weather">
  <rect width="480" height="360" rx="28" fill="#D7E8F8"/>
  <circle cx="176" cy="136" r="52" fill="#FFFFFF"/>
  <circle cx="238" cy="112" r="68" fill="#FFFFFF"/>
  <circle cx="314" cy="144" r="54" fill="#FFFFFF"/>
  <rect x="134" y="142" width="230" height="70" rx="35" fill="#FFFFFF"/>
  <g fill="#2787D8">
    <path d="M164 238c0 28-33 28-33 0 0-18 17-40 17-40s16 22 16 40z"/>
    <path d="M248 272c0 28-34 28-34 0 0-18 17-40 17-40s17 22 17 40z"/>
    <path d="M338 238c0 28-33 28-33 0 0-18 17-40 17-40s16 22 16 40z"/>
  </g>
</svg>
