<svg xmlns="http://www.w3.org/2000/svg" viewBox="0 0 480 360" role="img" aria-label="thunder weather">
  <rect width="480" height="360" rx="28" fill="#C9D7E8"/>
  <circle cx="174" cy="132" r="50" fill="#4B5563"/>
  <circle cx="236" cy="108" r="68" fill="#4B5563"/>
  <circle cx="316" cy="142" r="56" fill="#4B5563"/>
  <rect x="134" y="140" width="232" height="72" rx="36" fill="#4B5563"/>
  <path d="M244 190l-34 74h48l-30 76 86-112h-50l30-38z" fill="#FFD33D" stroke="#E0A800" stroke-width="8" stroke-linejoin="round"/>
  <path d="M140 248c0 22-26 22-26 0 0-14 13-32 13-32s13 18 13 32z" fill="#3B82F6"/>
  <path d="M366 250c0 22-26 22-26 0 0-14 13-32 13-32s13 18 13 32z" fill="#3B82F6"/>
</svg>
